<?xml version="1.0" encoding="UTF-8" standalone="no"?>
<!-- Created with Inkscape (http://www.inkscape.org/) -->

<svg
   xmlns:dc="http://purl.org/dc/elements/1.1/"
   xmlns:cc="http://creativecommons.org/ns#"
   xmlns:rdf="http://www.w3.org/1999/02/22-rdf-syntax-ns#"
   xmlns:svg="http://www.w3.org/2000/svg"
   xmlns="http://www.w3.org/2000/svg"
   xmlns:sodipodi="http://sodipodi.sourceforge.net/DTD/sodipodi-0.dtd"
   xmlns:inkscape="http://www.inkscape.org/namespaces/inkscape"
   width="150mm"
   height="150mm"
   viewBox="0 0 150 150"
   version="1.1"
   id="svg1488"
   inkscape:version="0.92.4 (5da689c313, 2019-01-14)"
   sodipodi:docname="second_proposal.svg">
  <defs
     id="defs1482" />
  <sodipodi:namedview
     id="base"
     pagecolor="#ffffff"
     bordercolor="#666666"
     borderopacity="1.0"
     inkscape:pageopacity="0.0"
     inkscape:pageshadow="2"
     inkscape:zoom="0.49497475"
     inkscape:cx="203.39548"
     inkscape:cy="129.45079"
     inkscape:document-units="mm"
     inkscape:current-layer="g16648"
     showgrid="false"
     units="mm"
     width="150mm"
     inkscape:window-width="1280"
     inkscape:window-height="755"
     inkscape:window-x="0"
     inkscape:window-y="0"
     inkscape:window-maximized="1" />
  <metadata
     id="metadata1485">
    <rdf:RDF>
      <cc:Work
         rdf:about="">
        <dc:format>image/svg+xml</dc:format>
        <dc:type
           rdf:resource="http://purl.org/dc/dcmitype/StillImage" />
        <dc:title></dc:title>
      </cc:Work>
    </rdf:RDF>
  </metadata>
  <g
     inkscape:label="Capa 1"
     inkscape:groupmode="layer"
     id="layer1"
     transform="translate(0,-147)">
    <g
       id="g12177"
       transform="matrix(0.28270446,0,0,0.28270446,-73.592585,34.321694)"
       inkscape:export-filename="/Users/analauragomezlujan/Desktop/software community/Final logo/together_ideas.png"
       inkscape:export-xdpi="300"
       inkscape:export-ydpi="300">
      <g
         id="g12197"
         transform="rotate(13.860842,110.58351,382.31303)">
        <g
           id="g16648"
           transform="matrix(0.69247417,0,0,0.69247417,324.80301,-109.80613)">
          <g
             id="g16603">
            <g
               id="g16571"
               transform="rotate(2.1121056,110.73267,382.31521)" />
          </g>
          <g
             id="g2175"
             transform="matrix(2.6949093,0,0,2.6949093,71.472614,-68.453232)">
            <g
               id="g12091"
               style="fill:#b82c4d;fill-opacity:1"
               transform="rotate(2.1121053,110.73278,382.31528)">
              <path
                 sodipodi:nodetypes="ccccccc"
                 inkscape:connector-curvature="0"
                 id="path12069"
                 d="m 66.835647,336.42104 c 8.882924,-2.38349 18.522965,-2.87419 30.764936,3.13993 4.687017,-8.90737 12.980227,-15.48132 24.856677,-19.7367 l -11.6626,-38.57628 c -9.39861,4.24789 -18.811086,8.29031 -24.512283,20.34385 -7.256716,-3.58287 -14.94063,-7.29079 -31.027696,-4.90696 z"
                 style="fill:#b82c4d;fill-opacity:1;stroke:none;stroke-width:1px;stroke-linecap:butt;stroke-linejoin:miter;stroke-opacity:1" />
              <circle
                 r="9.4361286"
                 cy="280.18222"
                 cx="80.643227"
                 id="path12071"
                 style="opacity:0.88700005;fill:#b82c4d;fill-opacity:1;stroke:#ff0000;stroke-width:0;stroke-linejoin:miter;stroke-miterlimit:4;stroke-dasharray:none;stroke-opacity:1" />
            </g>
            <g
               id="g12087"
               transform="rotate(-58.245233,23.630995,235.76552)"
               style="fill:#ffaaaa;fill-opacity:1">
              <path
                 style="fill:#ffaaaa;fill-opacity:1;stroke:none;stroke-width:1px;stroke-linecap:butt;stroke-linejoin:miter;stroke-opacity:1"
                 d="m -97.464008,340.22721 c 8.882924,-2.38349 18.522965,-2.87419 30.764936,3.13993 4.687017,-8.90737 12.980227,-15.48132 24.856677,-19.7367 l -11.6626,-38.57628 c -9.39861,4.24789 -18.811086,8.29031 -24.512283,20.34385 -7.256716,-3.58287 -14.94063,-7.29079 -31.027692,-4.90696 z"
                 id="path12073"
                 inkscape:connector-curvature="0"
                 sodipodi:nodetypes="ccccccc" />
              <circle
                 style="opacity:0.88700005;fill:#ffaaaa;fill-opacity:1;stroke:#ff0000;stroke-width:0;stroke-linejoin:miter;stroke-miterlimit:4;stroke-dasharray:none;stroke-opacity:1"
                 id="circle12075"
                 cx="-83.656425"
                 cy="283.9884"
                 r="9.4361286" />
            </g>
            <g
               id="g12095"
               transform="rotate(62.134261,108.8621,260.42308)">
              <path
                 sodipodi:nodetypes="ccccccc"
                 inkscape:connector-curvature="0"
                 id="path12077"
                 d="m 174.04276,270.44743 c 8.88292,-2.38349 18.52296,-2.87419 30.76493,3.13993 4.68702,-8.90737 12.98023,-15.48132 24.85668,-19.7367 l -11.6626,-38.57628 c -9.39861,4.24789 -18.81109,8.29031 -24.51228,20.34385 -7.25672,-3.58287 -14.94063,-7.29079 -31.0277,-4.90696 z"
                 style="fill:#aa4384;fill-opacity:1;stroke:none;stroke-width:1px;stroke-linecap:butt;stroke-linejoin:miter;stroke-opacity:1" />
              <circle
                 r="9.4361286"
                 cy="214.20862"
                 cx="187.85034"
                 id="circle12079"
                 style="opacity:0.88700005;fill:#aa4384;fill-opacity:1;stroke:#ff0000;stroke-width:0;stroke-linejoin:miter;stroke-miterlimit:4;stroke-dasharray:none;stroke-opacity:1" />
            </g>
            <g
               id="g12125"
               transform="matrix(0.86392346,-0.50362314,-0.50362314,-0.86392346,208.49551,768.15277)"
               style="fill:#006280;fill-opacity:1">
              <path
                 style="fill:#006280;fill-opacity:1;stroke:none;stroke-width:1px;stroke-linecap:butt;stroke-linejoin:miter;stroke-opacity:1"
                 d="m 66.835647,336.42104 c 8.882924,-2.38349 18.522965,-2.87419 30.764936,3.13993 4.687017,-8.90737 12.980227,-15.48132 24.856677,-19.7367 l -11.6626,-38.57628 c -9.39861,4.24789 -18.811086,8.29031 -24.512283,20.34385 -7.256716,-3.58287 -14.94063,-7.29079 -31.027696,-4.90696 z"
                 id="path12121"
                 inkscape:connector-curvature="0"
                 sodipodi:nodetypes="ccccccc" />
              <circle
                 style="opacity:0.88700005;fill:#006280;fill-opacity:1;stroke:#ff0000;stroke-width:0;stroke-linejoin:miter;stroke-miterlimit:4;stroke-dasharray:none;stroke-opacity:1"
                 id="circle12123"
                 cx="80.643227"
                 cy="280.18222"
                 r="9.4361286" />
            </g>
            <g
               transform="matrix(0.87160412,0.49021041,0.49021041,-0.87160412,-31.881185,744.81608)"
               id="g12131">
              <path
                 sodipodi:nodetypes="ccccccc"
                 inkscape:connector-curvature="0"
                 id="path12127"
                 d="m -97.464008,340.22721 c 8.882924,-2.38349 18.522965,-2.87419 30.764936,3.13993 4.687017,-8.90737 12.980227,-15.48132 24.856677,-19.7367 l -11.6626,-38.57628 c -9.39861,4.24789 -18.811086,8.29031 -24.512283,20.34385 -7.256716,-3.58287 -14.94063,-7.29079 -31.027692,-4.90696 z"
                 style="fill:#ff6600;fill-opacity:1;stroke:none;stroke-width:1px;stroke-linecap:butt;stroke-linejoin:miter;stroke-opacity:1" />
              <circle
                 r="9.4361286"
                 cy="283.9884"
                 cx="-83.656425"
                 id="circle12129"
                 style="opacity:0.88700005;fill:#ff6600;fill-opacity:1;stroke:#ff0000;stroke-width:0;stroke-linejoin:miter;stroke-miterlimit:4;stroke-dasharray:none;stroke-opacity:1" />
            </g>
            <g
               transform="matrix(-0.01789009,-0.99983995,-0.99983995,0.01789009,430.57525,595.06341)"
               id="g12137"
               style="fill:#8ac264;fill-opacity:1">
              <path
                 style="fill:#8ac264;fill-opacity:1;stroke:none;stroke-width:1px;stroke-linecap:butt;stroke-linejoin:miter;stroke-opacity:1"
                 d="m 174.04276,270.44743 c 8.88292,-2.38349 18.52296,-2.87419 30.76493,3.13993 4.68702,-8.90737 12.98023,-15.48132 24.85668,-19.7367 l -11.6626,-38.57628 c -9.39861,4.24789 -18.81109,8.29031 -24.51228,20.34385 -7.25672,-3.58287 -14.94063,-7.29079 -31.0277,-4.90696 z"
                 id="path12133"
                 inkscape:connector-curvature="0"
                 sodipodi:nodetypes="ccccccc" />
              <circle
                 style="opacity:0.88700005;fill:#8ac264;fill-opacity:1;stroke:#ff0000;stroke-width:0;stroke-linejoin:miter;stroke-miterlimit:4;stroke-dasharray:none;stroke-opacity:1"
                 id="circle12135"
                 cx="187.85034"
                 cy="214.20862"
                 r="9.4361286" />
            </g>
            <g
               transform="matrix(0.68122813,0,0,0.68122813,-174.63143,173.21491)"
               id="g16551">
              <path
                 sodipodi:nodetypes="ccccc"
                 inkscape:connector-curvature="0"
                 id="path16512"
                 d="m 409.0716,336.91036 27.9761,-6.9952 c 35.36615,-26.7966 6.42759,-65.26799 -16.40821,-67.45534 -7.04135,-0.36166 -17.83132,0.42967 -27.97756,7.46833 -17.40451,11.91002 -26.19521,53.77161 16.40967,66.98221 z"
                 style="fill:#ffbd00;fill-opacity:1;stroke:#ffbd00;stroke-width:1.18465281px;stroke-linecap:butt;stroke-linejoin:miter;stroke-opacity:1" />
              <path
                 style="fill:#4d4d4d;stroke:#4d4d4d;stroke-width:1px;stroke-linecap:butt;stroke-linejoin:miter;stroke-opacity:1"
                 d="m 417.85343,344.47705 c -2.75911,-1.03098 -2.9145,-3.04356 -1.16024,-4.70204 l 16.50475,-4.27207 c 2.22511,0.63443 3.44319,2.57158 1.18344,4.79608 z"
                 id="path16502"
                 inkscape:connector-curvature="0"
                 sodipodi:nodetypes="ccccc" />
              <path
                 sodipodi:nodetypes="ccccc"
                 inkscape:connector-curvature="0"
                 id="path16504"
                 d="m 426.86294,360.41143 c -2.44002,-1.1097 -2.34941,-3.18298 -1.06619,-4.72524 l 6.82347,-1.78345 c 1.67707,0.66649 2.85999,2.45553 1.25428,4.67884 z"
                 style="fill:#4d4d4d;stroke:#4d4d4d;stroke-width:0.69415361px;stroke-linecap:butt;stroke-linejoin:miter;stroke-opacity:1" />
              <path
                 style="fill:#4d4d4d;stroke:#4d4d4d;stroke-width:1px;stroke-linecap:butt;stroke-linejoin:miter;stroke-opacity:1"
                 d="m 419.94184,352.94071 c -2.75911,-1.03098 -2.9145,-3.04356 -1.16024,-4.70204 l 16.50475,-4.27207 c 2.22511,0.63443 3.44319,2.57158 1.18344,4.79608 z"
                 id="path16506"
                 inkscape:connector-curvature="0"
                 sodipodi:nodetypes="ccccc" />
              <path
                 style="fill:#ffffff;fill-opacity:1;stroke:#fff100;stroke-width:1px;stroke-linecap:butt;stroke-linejoin:miter;stroke-opacity:1"
                 d="m 410.07008,331.5324 23.67627,-6.34094 c 29.8536,-22.61979 5.42572,-55.09461 -13.85065,-56.94102 -5.94381,-0.30529 -15.11276,0.79878 -23.6775,6.74032 -14.69165,10.05359 -22.11214,45.39018 13.85188,56.54164 z"
                 id="path16510"
                 inkscape:connector-curvature="0"
                 sodipodi:nodetypes="ccccc" />
              <g
                 id="g16539"
                 transform="matrix(0.99862506,-0.00557222,-0.00557222,0.97741754,2.2260723,9.0215766)">
                <rect
                   style="opacity:1;fill:#4d4d4d;fill-opacity:1;stroke:#4d4d4d;stroke-width:1.11806285;stroke-linecap:round;stroke-linejoin:miter;stroke-miterlimit:4;stroke-dasharray:none;stroke-opacity:1;paint-order:markers stroke fill"
                   id="rect16528"
                   width="3.1353269"
                   height="16.429682"
                   x="326.78815"
                   y="403.21863"
                   transform="rotate(-13.860842)" />
                <path
                   style="fill:#4d4d4d;fill-opacity:1;stroke:#4d4d4d;stroke-width:1px;stroke-linecap:butt;stroke-linejoin:miter;stroke-opacity:1"
                   d="m 413.75892,312.74368 c -2.08851,-1.49136 -7.82359,-4.32803 -9.19208,-13.07556 l 11.40215,-2.71367 c 0.27228,1.46875 0.55125,2.0141 0.94664,3.54858 -2.91317,1.26128 -8.89778,1.12716 -7.8648,2.84663 2.47437,4.87461 8.56523,9.24868 7.75211,8.64291 z"
                   id="path16526"
                   inkscape:connector-curvature="0"
                   sodipodi:nodetypes="ccccccc" />
                <rect
                   transform="rotate(-13.860842)"
                   y="403.31784"
                   x="334.78815"
                   height="16.330465"
                   width="3.1353269"
                   id="rect16530"
                   style="opacity:1;fill:#4d4d4d;fill-opacity:1;stroke:#4d4d4d;stroke-width:1.11473846;stroke-linecap:butt;stroke-linejoin:miter;stroke-miterlimit:4;stroke-dasharray:none;stroke-opacity:1;paint-order:markers stroke fill" />
                <path
                   sodipodi:nodetypes="ccccccc"
                   inkscape:connector-curvature="0"
                   id="path16533"
                   d="m 424.56998,310.07605 c 1.15504,-2.2917 4.91228,-7.4706 2.05454,-15.85066 l -11.35572,2.90183 c 0.4422,1.42683 0.44893,2.03935 0.81273,3.58162 3.16551,-0.23863 8.4008,-3.14126 8.28625,-1.13863 0.0772,5.46611 -3.27982,12.17144 -2.84182,11.25696 z"
                   style="fill:#4d4d4d;fill-opacity:1;stroke:#4d4d4d;stroke-width:1px;stroke-linecap:butt;stroke-linejoin:miter;stroke-opacity:1" />
              </g>
            </g>
            <flowRoot
               xml:space="preserve"
               id="flowRoot16605"
               style="font-style:normal;font-weight:normal;font-size:40px;line-height:1.25;font-family:sans-serif;letter-spacing:0px;word-spacing:0px;fill:#4d4d4d;fill-opacity:1;stroke:none"
               transform="rotate(-13.860842,159.63251,1184.995)"><flowRegion
                 id="flowRegion16607"
                 style="fill:#4d4d4d;fill-opacity:1"><rect
                   id="rect16609"
                   width="74.389427"
                   height="50.367859"
                   x="293.68323"
                   y="347.89188"
                   style="fill:#4d4d4d;fill-opacity:1" /></flowRegion><flowPara
                 id="flowPara16611"
                 style="font-style:normal;font-variant:normal;font-weight:bold;font-stretch:normal;font-size:16px;font-family:'Century Gothic';-inkscape-font-specification:'Century Gothic Bold'">SC</flowPara></flowRoot>          </g>
        </g>
      </g>
    </g>
  </g>
</svg>
